# xmcd
#
# Track frame offsets: 
#        150
#        28741
#        65637
#        94366
#        116471
#        142702
#        160987
#        181839
#        209274
#
# Disc length: 3194 seconds
#
# Revision: 1
# Processed by: cddbd v1.5.2PL0 Copyright (c) Steve Scherf et al.
# Submitted via: ExactAudioCopy v1.0b2
#
DISCID=780c7809
DTITLE=Piotr Wylezol - piano trio
DYEAR=2006
DGENRE=Jazz
TTITLE0=Definitely
TTITLE1=Maja
TTITLE2=Taboo to love
TTITLE3=Who am I
TTITLE4=Lonesome dancer
TTITLE5=By the way
TTITLE6=Double exposure
TTITLE7=Stolen Waltz
TTITLE8=Dr Holmes
EXTD=YEAR: 2006
EXTT0=
EXTT1=
EXTT2=
EXTT3=
EXTT4=
EXTT5=
EXTT6=
EXTT7=
EXTT8=
PLAYORDER=
